<svg width="108" height="32" viewBox="0 0 108 32" fill="none" xmlns="http://www.w3.org/2000/svg">
<path d="M99.8736 22.1205L100.036 22.476L100.153 22.1031L103.141 12.5849C103.142 12.5846 103.142 12.5843 103.142 12.584C103.534 11.39 104.804 10.6914 106.044 11.0034V11.0172L106.153 11.0487C107.41 11.4149 108.124 12.7161 107.752 13.9405C107.752 13.9407 107.752 13.9409 107.752 13.9411L102.761 29.8519C102.761 29.8521 102.761 29.8524 102.761 29.8527C102.357 31.0952 100.995 31.7997 99.7207 31.4038C99.0611 31.1985 98.5226 30.7295 98.2386 30.1157C98.2386 30.1155 98.2385 30.1154 98.2384 30.1152L93.7078 20.1604L93.5485 19.8104L93.4288 20.1758L90.2173 29.9759L90.2172 29.9762C89.9043 30.9386 88.978 31.5993 87.9274 31.5993C87.6691 31.5993 87.4299 31.5696 87.1923 31.497L87.1919 31.4969C85.9338 31.1158 85.2348 29.8145 85.6221 28.5901L85.6291 28.568V28.5448V28.5448V28.5447V28.5446V28.5445V28.5444V28.5443V28.5442V28.5441V28.544V28.5439V28.5438V28.5438V28.5437V28.5436V28.5435V28.5434V28.5433V28.5432V28.5431V28.543V28.5429V28.5428V28.5427V28.5427V28.5426V28.5425V28.5424V28.5423V28.5422V28.5421V28.542V28.5419V28.5418V28.5417V28.5417V28.5416V28.5415V28.5414V28.5413V28.5412V28.5411V28.541V28.5409V28.5408V28.5408V28.5407V28.5406V28.5405V28.5404V28.5403V28.5402V28.5401V28.54V28.5399V28.5399V28.5398V28.5397V28.5396V28.5395V28.5394V28.5393V28.5392V28.5391V28.539V28.5389V28.5389V28.5388V28.5387V28.5386V28.5385V28.5384V28.5383V28.5382V28.5381V28.5381V28.538V28.5379V28.5378V28.5377V28.5376L90.8677 12.5081C90.8678 12.5079 90.8678 12.5077 90.8679 12.5075C91.2864 11.2656 92.6475 10.5898 93.9227 11.0008L93.9232 11.001C94.566 11.2057 95.0901 11.674 95.3749 12.2747C95.375 12.275 95.3752 12.2753 95.3753 12.2756L99.8736 22.1205Z" fill="black" fill-opacity="0.87" stroke="white" stroke-width="0.3"/>
<path d="M52.5791 13.9299V13.93L47.6576 29.8986C47.6575 29.8988 47.6575 29.8989 47.6575 29.899C47.3436 30.8929 46.4168 31.5671 45.3523 31.5671C44.0336 31.5671 42.9586 30.5118 42.9586 29.2127C42.9586 28.993 42.9885 28.7743 43.0477 28.5713C43.0478 28.5709 43.0479 28.5706 43.048 28.5703L47.9749 12.5838C47.9751 12.5834 47.9752 12.5829 47.9754 12.5825C48.3797 11.3538 49.6966 10.6501 50.9704 11.0166C52.1437 11.3584 52.8561 12.4997 52.6592 13.6433L52.5791 13.5648V13.9214V13.9215V13.9216V13.9217V13.9218V13.9219V13.922V13.9221V13.9222V13.9222V13.9223V13.9224V13.9225V13.9226V13.9227V13.9228V13.9229V13.923V13.9231V13.9232V13.9232V13.9233V13.9234V13.9235V13.9236V13.9237V13.9238V13.9239V13.924V13.9241V13.9242V13.9243V13.9243V13.9244V13.9245V13.9246V13.9247V13.9248V13.9249V13.925V13.9251V13.9252V13.9252V13.9253V13.9254V13.9255V13.9256V13.9257V13.9258V13.9259V13.926V13.9261V13.9262V13.9262V13.9263V13.9264V13.9265V13.9266V13.9267V13.9268V13.9269V13.927V13.9271V13.9271V13.9272V13.9273V13.9274V13.9275V13.9276V13.9277V13.9278V13.9279V13.9279V13.928V13.9281V13.9282V13.9283V13.9284V13.9285V13.9286V13.9287V13.9287V13.9288V13.9289V13.929V13.9291V13.9292V13.9293V13.9294V13.9295V13.9295V13.9296V13.9297V13.9298V13.9299Z" fill="black" fill-opacity="0.87" stroke="white" stroke-width="0.3"/>
<path d="M43.5934 11.8821L43.6385 11.9404H43.6514C44.0646 12.5308 44.1819 13.2766 43.9514 13.9674L43.9511 13.9682L38.7206 29.9595L38.7205 29.9597C38.4076 30.9221 37.4813 31.5828 36.4307 31.5828C36.1783 31.5828 35.9389 31.5393 35.6956 31.4649L35.6952 31.4648C34.4371 31.0838 33.7381 29.7825 34.1254 28.558L34.1324 28.5359V28.5211L38.3062 15.7727L38.3706 15.576H38.1636H30.4053H30.2967L30.2628 15.6792L25.5728 29.9437L25.5727 29.9443C25.1698 31.1851 23.809 31.8616 22.5489 31.4653L22.5474 31.4648C21.2893 31.0838 20.5903 29.7825 20.9776 28.558L20.9846 28.5359V28.5212L26.2235 12.5527L26.2236 12.5524C26.5366 11.59 27.4628 10.9293 28.5134 10.9293H41.6453C42.41 10.9293 43.1292 11.2814 43.5934 11.8821Z" fill="black" fill-opacity="0.87" stroke="white" stroke-width="0.3"/>
<path d="M21.4639 11.8978L21.567 12.0312L21.5764 12.022C21.945 12.5986 22.0419 13.3081 21.8219 13.9675L21.8216 13.9682L16.5752 29.9594L16.5751 29.9598C16.2622 30.9222 15.3359 31.5829 14.2853 31.5829C14.0329 31.5829 13.7935 31.5394 13.5502 31.465L13.5498 31.4649C12.2917 31.0839 11.5927 29.7825 11.98 28.5581L11.987 28.536V28.5212L16.1608 15.7884L16.2253 15.5916H16.0182H5.09617C3.77688 15.5916 2.71836 14.5513 2.71836 13.2683C2.71836 11.9853 3.77688 10.9449 5.09617 10.9449H19.5159C20.2805 10.9449 20.9997 11.297 21.4639 11.8978Z" fill="black" fill-opacity="0.87" stroke="white" stroke-width="0.3"/>
<path d="M5.40404 20.2244L5.59705 20.2822V20.2739C6.73408 20.7107 7.35772 21.9408 7.00465 23.1015L6.99816 23.1229V23.1377L4.85905 29.9439C4.85901 29.944 4.85898 29.9441 4.85895 29.9443C4.54551 30.9222 3.60321 31.5975 2.55357 31.5975C2.31098 31.5975 2.07293 31.5678 1.85287 31.496L1.85289 31.4959L1.8483 31.4946C0.591007 31.1284 -0.123454 29.8272 0.248564 28.6029C0.248628 28.6027 0.248693 28.6024 0.248758 28.6022L2.39402 21.7764C2.39412 21.7761 2.39422 21.7758 2.39432 21.7755C2.79837 20.5472 4.13032 19.8432 5.40404 20.2244Z" fill="black" fill-opacity="0.87" stroke="white" stroke-width="0.3"/>
<path d="M86.2189 11.8829L86.2253 11.8911L86.2327 11.8984L86.2417 11.9072C86.6984 12.4889 86.8306 13.2576 86.6081 13.9545L86.6078 13.9552L84.0962 21.95C84.0961 21.9502 84.0961 21.9504 84.096 21.9506C83.7824 22.9284 82.8402 23.6035 81.7907 23.6035H70.7573H70.65L70.6154 23.7052L69.582 26.7385L69.5144 26.9369H69.724H79.4855V26.9369L79.4888 26.9368C80.8079 26.9075 81.8971 27.9337 81.9269 29.2171C81.9567 30.4992 80.9138 31.569 79.595 31.5991H79.5948H79.5945H79.5942H79.5939H79.5936H79.5933H79.5931H79.5928H79.5925H79.5922H79.5919H79.5916H79.5913H79.591H79.5907H79.5904H79.5901H79.5898H79.5896H79.5893H79.589H79.5887H79.5884H79.5881H79.5878H79.5875H79.5872H79.5869H79.5866H79.5863H79.586H79.5857H79.5854H79.585H79.5847H79.5844H79.5841H79.5838H79.5835H79.5832H79.5829H79.5826H79.5823H79.582H79.5817H79.5814H79.581H79.5807H79.5804H79.5801H79.5798H79.5795H79.5792H79.5789H79.5785H79.5782H79.5779H79.5776H79.5773H79.577H79.5766H79.5763H79.576H79.5757H79.5754H79.5751H79.5747H79.5744H79.5741H79.5738H79.5735H79.5731H79.5728H79.5725H79.5722H79.5718H79.5715H79.5712H79.5709H79.5706H79.5702H79.5699H79.5696H79.5693H79.5689H79.5686H79.5683H79.568H79.5676H79.5673H79.567H79.5667H79.5663H79.566H79.5657H79.5653H79.565H79.5647H79.5644H79.564H79.5637H79.5634H79.563H79.5627H79.5624H79.5621H79.5617H79.5614H79.5611H79.5607H79.5604H79.5601H79.5597H79.5594H79.5591H79.5587H79.5584H79.5581H79.5578H79.5574H79.5571H79.5568H79.5564H79.5561H79.5558H79.5554H79.5551H79.5548H79.5544H79.5541H79.5538H79.5534H79.5531H79.5528H79.5524H79.5521H79.5518H79.5514H79.5511H79.5508H79.5504H79.5501H79.5498H79.5494H79.5491H79.5488H79.5484H79.5481H79.5478H79.5475H79.5471H79.5468H79.5465H79.5461H79.5458H79.5455H79.5451H79.5448H79.5445H79.5441H79.5438H79.5435H79.5431H79.5428H79.5425H79.5421H79.5418H79.5415H79.5411H79.5408H79.5405H79.5402H79.5398H79.5395H79.5392H79.5388H79.5385H79.5382H79.5378H79.5375H79.5372H79.5369H79.5365H79.5362H79.5359H79.5356H79.5352H79.5349H79.5346H79.5342H79.5339H79.5336H79.5333H79.5329H79.5326H79.5323H79.532H79.5316H79.5313H79.531H79.5307H79.5303H79.53H79.5297H79.5294H79.5291H79.5287H79.5284H79.5281H79.5278H79.5274H79.5271H79.5268H79.5265H79.5262H79.5259H79.5255H79.5252H79.5249H79.5246H79.5243H79.5239H79.5236H79.5233H79.523H79.5227H79.5224H79.5221H79.5217H79.5214H79.5211H79.5208H79.5205H79.5202H79.5199H79.5196H79.5193H79.5189H79.5186H79.5183H79.518H79.5177H79.5174H79.5171H79.5168H79.5165H79.5162H79.5159H79.5156H79.5153H79.515H79.5147H79.5144H79.5141H79.5138H79.5135H79.5132H79.5129H79.5126H79.5123H79.512H79.5117H79.5114H79.5111H79.5108H79.5105H79.5102H79.5099H79.5096H79.5093H79.509H79.5088H79.5085H79.5082H79.5079H79.5076H79.5073H79.507H79.5067H79.5065H79.5062H79.5059H79.5056H79.5053H79.5051H79.5048H79.5045H79.5042H79.5039H79.5037H79.5034H79.5031H79.5028H79.5026H79.5023H79.502H79.5017H79.5015H79.5012H79.5009H79.5007H79.5004H79.5001H79.4999H79.4996H79.4993H79.4991H79.4988H79.4985H79.4983H79.498H79.4978H79.4975H79.4972H79.497H79.4967H79.4965H79.4962H79.496H79.4957H79.4955H79.4952H79.495H79.4947H79.4945H79.4942H79.494H79.4937H79.4935H79.4932H79.493H79.4927H79.4925H79.4923H79.492H79.4918H79.4915H79.4913H79.4911H79.4908H79.4906H79.4904H79.4901H79.4899H79.4897H79.4895H79.4892H79.489H79.4888H79.4886H79.4883H79.4881H79.4879H79.4877H79.4875H79.4872H79.487H79.4868H79.4866H79.4864H79.4862H79.486H79.4857H79.4855H79.4853H79.4851H79.4849H79.4847H79.4845H79.4843H79.4841H79.4839H79.4837H79.4835H79.4833H79.4831H79.4829H79.4827H79.4825H79.4824H79.4822H79.482H79.4818H79.4816H79.4814H79.4812H79.4811H79.4809H79.4807H79.4805H79.4803H79.4802H79.48H79.4798H79.4796H79.4795H79.4793H79.4791H79.479H79.4788H79.4786H79.4785H79.4783H79.4782H79.478H79.4778H79.4777H79.4775H79.4774H79.4772H79.4771H79.4769H79.4768H79.4766H79.4765H79.4763H79.4762H79.476H79.4759H79.4758H79.4756H79.4755H79.4754H79.4752H79.4751H79.475H79.4748H79.4747H79.4746H79.4745H79.4743H79.4742H79.4741H79.474H79.4739H79.4737H79.4736H79.4735H79.4734H79.4733H79.4732H79.4731H79.473H79.4729H79.4728H79.4727H79.4726H79.4725H79.4724H79.4723H79.4722H79.4721H79.472H79.4719H79.4718H79.4717H79.4717H79.4716H79.4715H79.4714H79.4713H79.4713H79.4712H79.4711H79.471H79.471H79.4709H79.4708H79.4708H79.4707H79.4706H79.4706H79.4705H79.4705H79.4704H79.4704H79.4703H79.4703H79.4702H79.4702H79.4701H79.4701H79.47H79.47H79.47H79.4699H79.4699H79.4699H79.4698H79.4698H79.4698H79.4697H79.4697H79.4697H79.4697H79.4697H79.4696H79.4696H79.4696H79.4696H79.4696H66.1628C65.3805 31.5991 64.648 31.246 64.2013 30.634L64.2002 30.6326C63.7533 30.0349 63.6337 29.2467 63.8723 28.5464L63.8724 28.5462L65.4781 23.8173L65.5454 23.6191H65.3361H59.8194C59.567 23.6191 59.3276 23.5756 59.0842 23.5012L58.9425 23.4579L58.8975 23.599L56.8632 29.9747C56.8631 29.9751 56.863 29.9754 56.8628 29.9758C56.5337 30.9551 55.6064 31.6147 54.5571 31.6147C54.2981 31.6147 54.0602 31.5849 53.8405 31.5132L53.8405 31.5131L53.8354 31.5117C52.5635 31.1456 51.8636 29.8449 52.2364 28.6194L52.2429 28.5981V28.5758V28.5757V28.5756V28.5755V28.5754V28.5753V28.5752V28.5752V28.5751V28.575V28.5749V28.5748V28.5747V28.5746V28.5745V28.5744V28.5743V28.5742V28.5742V28.5741V28.574V28.5739V28.5738V28.5737V28.5736V28.5735V28.5734V28.5733V28.5732V28.5732V28.5731V28.573V28.5729V28.5728V28.5727V28.5726V28.5725V28.5724V28.5723V28.5722V28.5722V28.5721V28.572V28.5719V28.5718V28.5717V28.5716V28.5715V28.5714V28.5713V28.5712V28.5712V28.5711V28.571V28.5709V28.5708V28.5707V28.5706V28.5705V28.5704V28.5703V28.5703V28.5702V28.5701V28.57V28.5699V28.5698V28.5697V28.5696V28.5695V28.5695V28.5694V28.5693V28.5692V28.5691V28.569V28.5689V28.5688V28.5687V28.5686V28.5686V28.5685V28.5684V28.5683V28.5682V28.5681V28.568L60.804 1.83727C60.8041 1.83684 60.8043 1.83641 60.8044 1.83597C61.1342 0.869742 62.0473 0.196667 63.0944 0.19667L63.0953 0.196664L70.7256 0.15H70.726H70.7414C72.0613 0.15 73.1357 1.19113 73.1511 2.47426C73.1506 3.75806 72.091 4.81226 70.7732 4.81226L70.7724 4.81227L65.0173 4.84338L64.9084 4.84397L64.8752 4.94762L60.4555 18.7455L60.3928 18.9413H60.5984H67.0372H67.1448L67.1793 18.8393L69.3095 12.5396C69.6378 11.576 70.5647 10.9301 71.6 10.9301H84.2867C85.035 10.9301 85.7544 11.2818 86.2189 11.8829ZM79.867 18.9413H79.9773L80.0102 18.8361L80.9641 15.7871L81.025 15.5924H80.8209H73.4441H73.3366L73.3021 15.6942L72.2687 18.7431L72.2015 18.9413H72.4108H79.867Z" fill="black" fill-opacity="0.87" stroke="white" stroke-width="0.3"/>
</svg>
